<svg width="50" height="50" viewBox="0 0 50 50" fill="none" xmlns="http://www.w3.org/2000/svg">
<path d="M22.2502 24.6502C21.5992 24.6492 20.9519 24.747 20.3302 24.9402C17.2217 25.8801 15.2738 28.9587 15.7555 32.1704C16.2373 35.382 19.0027 37.7536 22.2502 37.7402C22.9042 37.7369 23.5542 37.6393 24.1802 37.4502C27.2615 36.4842 29.1791 33.4166 28.6976 30.2235C28.2162 27.0304 25.4794 24.6646 22.2502 24.6502" fill="#80829B"/>
<path d="M20.4503 27.4701C21.0648 29.4056 20.4475 31.5206 18.8883 32.8217C17.3292 34.1229 15.138 34.3518 13.3436 33.401C11.5492 32.4502 10.5081 30.5085 10.7093 28.4877C10.9104 26.467 12.3137 24.7686 14.2603 24.1901C16.8727 23.4137 19.6257 24.8725 20.4503 27.4701Z" fill="#000638"/>
<path d="M34.6108 43.1501C35.4068 45.7359 33.9564 48.4774 31.371 49.2743C28.7855 50.0712 26.0435 48.6219 25.2456 46.0367C24.4477 43.4516 25.896 40.709 28.4808 39.9101C29.7234 39.5261 31.0676 39.6518 32.2174 40.2596C33.3672 40.8673 34.2282 41.9072 34.6108 43.1501V43.1501Z" fill="#000638"/>
<path d="M4.32037 35.9102C3.98148 35.9108 3.64453 35.9613 3.32037 36.0602C1.63047 36.5811 0.62779 38.3166 1.02054 40.0408C1.41329 41.7651 3.0687 42.8951 4.81751 42.6328C6.56633 42.3704 7.81734 40.8044 7.68692 39.0409C7.5565 37.2773 6.08875 35.9124 4.32037 35.9102" fill="#000638"/>
<path d="M35.5407 29.86C35.2931 29.8573 35.0466 29.8944 34.8107 29.97C33.6283 30.3329 32.8889 31.5058 33.0716 32.7291C33.2542 33.9524 34.3039 34.8583 35.5407 34.86C35.7913 34.8577 36.0404 34.8207 36.2807 34.75C37.465 34.3866 38.2046 33.2107 38.0192 31.9859C37.8339 30.7611 36.7795 29.8567 35.5407 29.86" fill="#CCCDD7"/>
<path d="M8.68038 10.49C8.12421 10.4898 7.57123 10.5741 7.04038 10.74C4.26184 11.6026 2.61811 14.4614 3.27046 17.2967C3.92281 20.132 6.65063 21.9849 9.52677 21.5465C12.4029 21.1081 14.4547 18.5265 14.2327 15.6256C14.0106 12.7247 11.5897 10.4855 8.68038 10.49" fill="#80829B"/>
<path d="M31.0001 0.790039C29.9622 0.790253 28.9303 0.948742 27.9401 1.26004C23.0532 2.78145 20.0022 7.63527 20.7501 12.6987C21.498 17.762 25.822 21.5265 30.9401 21.57C31.9772 21.5684 33.0084 21.4134 34.0001 21.11C38.9037 19.6006 41.9713 14.7379 41.2219 9.66238C40.4726 4.58682 36.1306 0.818094 31.0001 0.790039" fill="#CCCDD7"/>
<path d="M41.1302 6.63996C38.9114 6.6409 37.0594 8.3336 36.8595 10.5434C36.6595 12.7532 38.1776 14.7508 40.3602 15.15C40.6174 15.1981 40.8786 15.2215 41.1402 15.22C43.359 15.219 45.211 13.5263 45.4109 11.3166C45.6109 9.10678 44.0928 7.10915 41.9102 6.70996C41.653 6.66186 41.3918 6.63842 41.1302 6.63996" fill="#000638"/>
</svg>
